<svg width="33" height="21" viewBox="0 0 33 21" fill="none" xmlns="http://www.w3.org/2000/svg">
<path d="M7.5 21C6.25 21 5.1875 20.5625 4.3125 19.6875C3.4375 18.8125 3 17.75 3 16.5H0V3C0 2.175 0.29375 1.46875 0.88125 0.88125C1.46875 0.29375 2.175 0 3 0H24L33 9V16.5H30C30 17.75 29.5625 18.8125 28.6875 19.6875C27.8125 20.5625 26.75 21 25.5 21C24.25 21 23.1875 20.5625 22.3125 19.6875C21.4375 18.8125 21 17.75 21 16.5H12C12 17.75 11.5625 18.8125 10.6875 19.6875C9.8125 20.5625 8.75 21 7.5 21ZM21 7.5H27L22.5 3H21V7.5ZM12 7.5H18V3H12V7.5ZM3 7.5H9V3H3V7.5ZM7.5 18.375C8.025 18.375 8.46875 18.1937 8.83125 17.8312C9.19375 17.4688 9.375 17.025 9.375 16.5C9.375 15.975 9.19375 15.5312 8.83125 15.1687C8.46875 14.8062 8.025 14.625 7.5 14.625C6.975 14.625 6.53125 14.8062 6.16875 15.1687C5.80625 15.5312 5.625 15.975 5.625 16.5C5.625 17.025 5.80625 17.4688 6.16875 17.8312C6.53125 18.1937 6.975 18.375 7.5 18.375ZM25.5 18.375C26.025 18.375 26.4688 18.1937 26.8312 17.8312C27.1937 17.4688 27.375 17.025 27.375 16.5C27.375 15.975 27.1937 15.5312 26.8312 15.1687C26.4688 14.8062 26.025 14.625 25.5 14.625C24.975 14.625 24.5312 14.8062 24.1688 15.1687C23.8063 15.5312 23.625 15.975 23.625 16.5C23.625 17.025 23.8063 17.4688 24.1688 17.8312C24.5312 18.1937 24.975 18.375 25.5 18.375ZM3 13.5H4.2C4.625 13.05 5.1125 12.6875 5.6625 12.4125C6.2125 12.1375 6.825 12 7.5 12C8.175 12 8.7875 12.1375 9.3375 12.4125C9.8875 12.6875 10.375 13.05 10.8 13.5H22.2C22.625 13.05 23.1125 12.6875 23.6625 12.4125C24.2125 12.1375 24.825 12 25.5 12C26.175 12 26.7875 12.1375 27.3375 12.4125C27.8875 12.6875 28.375 13.05 28.8 13.5H30V10.5H3V13.5ZM30 10.5H28.8C28.375 10.5 27.8875 10.5 27.3375 10.5C26.7875 10.5 26.175 10.5 25.5 10.5C24.825 10.5 24.2125 10.5 23.6625 10.5C23.1125 10.5 22.625 10.5 22.2 10.5H10.8C10.375 10.5 9.8875 10.5 9.3375 10.5C8.7875 10.5 8.175 10.5 7.5 10.5C6.825 10.5 6.2125 10.5 5.6625 10.5C5.1125 10.5 4.625 10.5 4.2 10.5H3H30Z" fill="#D4AF37"/>
</svg>
